<svg id="Layer_1_1_" enable-background="new 0 0 64 64" height="512" viewBox="0 0 64 64" width="512" xmlns="http://www.w3.org/2000/svg"><path d="m50 50v-25l-18-14-18 14v25z" fill="#4380aa"/><g fill="#59aae2"><path d="m14 50-11 11h58l-11-11z"/><path d="m50 50 11 11v-36h-11z"/><path d="m3 25h11l18-14 18 14h11l-29-22z"/><path d="m14 25h-11v36l11-11z"/></g><path d="m42.892 51.567c-.071-.318-.106-.643-.106-.968l-.968-9.362c0-1.932-.556-3.734-1.517-5.254l-.992-1.314c-1.804-2.016-4.426-3.284-7.343-3.284 3.799 0 7.019-2.481 8.127-5.911l.311-1.314c.066-.428.1-.867.1-1.314v-.769c0-1.17-1.415-1.756-2.242-.929l-1.352 1.352c-.541.541-1.428.507-1.926-.074l-2.02-2.357c-.524-.612-1.47-.612-1.995 0l-2.02 2.357c-.498.581-1.385.615-1.926.074l-1.352-1.352c-.828-.828-2.242-.241-2.242.929v.769c0 4.716 3.823 8.539 8.539 8.539-5.441 0-9.852 4.411-9.852 9.852l-.968 9.362c0 .326-.036.65-.106.968-.622 2.788 1.499 5.433 4.356 5.433h13.136c2.856 0 4.977-2.645 4.358-5.433z" fill="#f9da55"/><path d="m41.534 55.39h-13.136c-2.856 0-4.978-2.645-4.358-5.433.071-.318.106-.643.106-.968l.968-9.362c0-3.147 1.481-5.943 3.778-7.746-3.934 1.292-6.778 4.99-6.778 9.356l-.968 9.362c0 .326-.036.65-.106.968-.62 2.788 1.501 5.433 4.358 5.433h13.136c1.411 0 2.641-.647 3.451-1.636-.149.015-.298.026-.451.026z" fill="#bba340"/><path d="m29.976 31.142c1.465-.863 3.166-1.367 4.99-1.367-4.478 0-8.144-3.449-8.503-7.834l-.793-.793c-.828-.828-2.242-.241-2.242.929v.769c-.001 4.029 2.794 7.398 6.548 8.296z" fill="#bba340"/><path d="m3 62h58c.553 0 1-.448 1-1v-36c0-.313-.146-.607-.396-.797l-29-22c-.357-.271-.852-.271-1.209 0l-29 22c-.249.19-.395.484-.395.797v36c0 .552.447 1 1 1zm10-36v23.586l-9 9v-32.586zm47 32.586-9-9v-23.586h9zm-11-9.586h-4v2h4.586l9 9h-53.172l9-9h4.586v-2h-4v-23.51l17-13.222 17 13.222zm-17-44.745 26.027 19.745h-7.684l-17.729-13.79c-.361-.28-.867-.28-1.229 0l-17.728 13.79h-7.684z"/><path d="m31.965 18.61c-.677 0-1.316.295-1.755.808l-2.021 2.357c-.078.09-.176.107-.227.109-.06.001-.15-.008-.234-.092l-1.352-1.353c-.665-.664-1.656-.859-2.522-.501-.867.359-1.428 1.198-1.428 2.137v.77c0 3.683 2.102 6.878 5.165 8.467-.477.211-.934.459-1.372.734-1.909.25-3.738.058-4.588-1.217l-1.664 1.109c.903 1.355 2.322 1.948 3.88 2.119-1.685 1.903-2.721 4.393-2.734 7.125l-.963 9.312c-.003.034-.005.069-.005.103 0 .254-.027.506-.083.751-.361 1.627.03 3.305 1.072 4.605 1.043 1.3 2.597 2.045 4.263 2.045h13.137c1.666 0 3.22-.746 4.263-2.045 1.042-1.3 1.433-2.979 1.071-4.604-.055-.249-.083-.502-.083-.752 0-.034-.002-.069-.005-.103l-.963-9.312c-.01-2.038-.587-4.02-1.671-5.736l-1.691 1.068c.892 1.41 1.362 3.042 1.362 4.72 0 .034.002.069.005.103l.963 9.313c.004.378.048.758.13 1.131.229 1.031-.018 2.095-.679 2.919s-1.645 1.3-2.702 1.3h-13.137c-1.057 0-2.041-.473-2.702-1.296-.661-.824-.909-1.888-.681-2.918.083-.369.127-.75.131-1.133l.963-9.313c.003-.034.005-.069.005-.103 0-3.026 1.529-5.701 3.853-7.298 1.9-.305 3.658-.924 4.633-1.313.805 1.103 2.532 3.122 4.723 3.67l.484-1.94c-.925-.231-1.812-.921-2.526-1.649 1.636.445 3.132 1.343 4.284 2.63l1.49-1.334c-1.037-1.159-2.3-2.067-3.693-2.684 2.179-1.127 3.89-3.081 4.683-5.537l-1.902-.615c-.733 2.269-2.464 3.985-4.612 4.759.688-1.134 1.063-2.434 1.063-3.795h-2c0 1.427-.556 2.769-1.564 3.778l-.391.391-.991-.991c-.934-.934-1.314-2.311-.995-3.593l-1.939-.484c-.355 1.419-.14 2.91.544 4.17-2.283-1.297-3.829-3.747-3.829-6.555v-.77c0-.173.105-.253.193-.29.089-.037.222-.054.343.068l1.352 1.352c.453.454 1.061.696 1.726.676.642-.025 1.249-.319 1.668-.806l2.021-2.358c.164-.191.313-.188.476 0l2.021 2.357c.418.488 1.025.781 1.667.806.644.02 1.271-.222 1.725-.676l1.353-1.352c.122-.122.253-.104.342-.068.088.037.193.117.193.29v.77c0 .39-.03.781-.089 1.161l1.977.307c.074-.481.112-.975.112-1.467v-.77c0-.939-.561-1.778-1.429-2.138-.866-.358-1.856-.163-2.521.502l-1.353 1.352c-.085.085-.202.09-.233.092-.052-.002-.148-.019-.227-.109l-2.021-2.357c-.443-.515-1.082-.809-1.759-.809z"/><path d="m31.786 41h.214c1.103 0 2 .897 2 2h2c0-1.858-1.279-3.411-3-3.858v-2.142h-2v2.097c-1.551.359-2.714 1.745-2.714 3.403 0 1.93 1.57 3.5 3.5 3.5h.428c.827 0 1.5.673 1.5 1.5s-.673 1.5-1.5 1.5h-.214c-1.103 0-2-.897-2-2h-2c0 1.858 1.279 3.411 3 3.858v2.142h2v-2.097c1.551-.359 2.714-1.745 2.714-3.403 0-1.93-1.57-3.5-3.5-3.5h-.428c-.827 0-1.5-.673-1.5-1.5s.673-1.5 1.5-1.5z"/></svg>